<svg xmlns="http://www.w3.org/2000/svg" viewBox="0 0 48 48">
  <path fill="#EA4335" d="M24 9.5c3.54 0 6.71 1.22 9.21 3.6l6.85-6.85C35.88 1.52 30.4-.44 24-.44 14.8-.44 6.94 4.9 3.17 12.03l7.99 6.2C13.14 12.12 18.1 9.5 24 9.5z"/>
  <path fill="#4285F4" d="M46.67 24.34c0-1.59-.14-3.13-.41-4.62H24v8.75h12.74c-.55 2.97-2.24 5.49-4.76 7.18l7.43 5.77c4.3-3.97 6.76-9.84 6.76-16.08z"/>
  <path fill="#FBBC05" d="M11.16 26.78a14.5 14.5 0 010-8.75L3.17 11.8A24.003 24.003 0 000 24c0 3.9.92 7.58 3.17 12.2l7.99-6.2z"/>
  <path fill="#34A853" d="M24 48c6.48 0 11.92-2.13 15.89-5.83l-7.43-5.77c-2.06 1.38-4.7 2.19-8.46 2.19-6.56 0-12.1-4.42-14.04-10.53l-7.99 6.2C6.94 43.1 14.8 48 24 48z"/>
</svg>
