<?xml version="1.0" encoding="UTF-8"?>
<svg version="1.1" xmlns="http://www.w3.org/2000/svg" width="1820" height="1024">
<path d="M0 0 C600.6 0 1201.2 0 1820 0 C1820 337.92 1820 675.84 1820 1024 C1219.4 1024 618.8 1024 0 1024 C0 686.08 0 348.16 0 0 Z " fill="#FEFEFE" transform="translate(0,0)"/>
<path d="M0 0 C2.29131271 0.52087 4.58556968 1.01179349 6.88671875 1.48681641 C64.23647624 13.61728229 119.45849558 45.15898857 162.4140625 84.64697266 C164.40864803 86.41756729 166.4467517 88.02856756 168.60546875 89.59228516 C167.09269002 93.14318433 165.02426774 95.4203686 162.30282593 98.13543701 C161.39976212 99.04125015 160.4966983 99.94706329 159.56626892 100.88032532 C158.56298912 101.87652738 157.55961372 102.87263317 156.55615234 103.86865234 C155.50125395 104.92298648 154.44679598 105.97776143 153.39274597 107.03294373 C150.5317144 109.89454926 147.66455705 112.74994523 144.79626799 115.6042738 C141.79913333 118.58890835 138.80765917 121.57920532 135.81558228 124.56890869 C130.14955131 130.22872278 124.47844125 135.88341918 118.805493 141.53629899 C112.34697229 147.97246719 105.89412777 154.41431341 99.44175601 160.85664511 C86.16930383 174.10819058 72.88973294 187.35258142 59.60546875 200.59228516 C58.3420772 199.65965114 57.08076749 198.72419664 55.8203125 197.78759766 C55.11769287 197.26697754 54.41507324 196.74635742 53.69116211 196.20996094 C51.75557356 194.70870731 49.95930825 193.13594152 48.16796875 191.46728516 C28.88276322 174.58349411 5.0269925 162.1483117 -19.39453125 154.59228516 C-20.22130371 154.33012207 -21.04807617 154.06795898 -21.89990234 153.79785156 C-55.472378 143.32576103 -93.78632974 140.1881093 -128.39453125 147.59228516 C-129.23999512 147.7638916 -130.08545898 147.93549805 -130.95654297 148.11230469 C-170.56438127 156.27007591 -206.24846838 174.7635465 -236.39453125 201.59228516 C-236.90322754 202.03926758 -237.41192383 202.48625 -237.93603516 202.94677734 C-256.29283243 219.11006825 -271.54615869 238.18528934 -283.39453125 259.59228516 C-283.78415039 260.27484375 -284.17376953 260.95740234 -284.57519531 261.66064453 C-294.66260561 279.37551075 -301.90481671 298.27515579 -307.33203125 317.90478516 C-307.73748169 319.34930054 -307.73748169 319.34930054 -308.15112305 320.82299805 C-312.59036863 337.78550027 -313.89625853 354.84906677 -313.78564453 372.32324219 C-313.76946455 375.35478145 -313.78565828 378.38500278 -313.8046875 381.41650391 C-313.81797499 393.14989585 -312.91881073 404.13686447 -310.39453125 415.59228516 C-310.05808594 417.2184375 -310.05808594 417.2184375 -309.71484375 418.87744141 C-296.50911868 481.06440126 -261.49921323 534.35778747 -208.39453125 569.59228516 C-187.27689794 583.24413842 -164.26373035 593.39149939 -139.83203125 599.34228516 C-139.06697266 599.52895752 -138.30191406 599.71562988 -137.51367188 599.90795898 C-134.81602289 600.52603144 -132.11219766 601.06851286 -129.39453125 601.59228516 C-128.75630432 601.71830109 -128.11807739 601.84431702 -127.46051025 601.97415161 C-113.91506429 604.58728627 -100.66541214 605.11306554 -86.89453125 605.02978516 C-85.8427066 605.02707611 -84.79088196 605.02436707 -83.70718384 605.02157593 C-67.30692959 604.95760789 -51.45854198 604.1691971 -35.39453125 600.59228516 C-34.53311523 600.40504883 -33.67169922 600.2178125 -32.78417969 600.02490234 C4.6067228 591.64343407 39.4095356 574.47843038 67.16894531 547.96142578 C68.56145488 546.63423447 69.96995783 545.32388685 71.37890625 544.01416016 C97.0110619 519.48367309 110.15811495 487.38170034 118.60546875 453.59228516 C50.62546875 453.59228516 -17.35453125 453.59228516 -87.39453125 453.59228516 C-87.39453125 404.42228516 -87.39453125 355.25228516 -87.39453125 304.59228516 C32.06546875 304.59228516 151.52546875 304.59228516 274.60546875 304.59228516 C275.59546875 311.85228516 276.58546875 319.11228516 277.60546875 326.59228516 C277.97671875 328.77853516 278.34796875 330.96478516 278.73046875 333.21728516 C279.52740263 338.32923435 279.89480954 343.39575496 280.14453125 348.55712891 C280.20782623 349.86164757 280.20782623 349.86164757 280.2723999 351.19252014 C282.50517414 400.78960285 280.62411719 451.50026377 266.26660156 499.37353516 C265.52692752 501.85586812 264.8287294 504.34843527 264.12890625 506.84228516 C254.32581703 541.09943086 239.41373161 573.95186401 219.60546875 603.59228516 C219.10450684 604.34251953 218.60354492 605.09275391 218.08740234 605.86572266 C208.34304767 620.31588763 197.41485879 633.78315839 185.60546875 646.59228516 C184.80238281 647.49849609 183.99929688 648.40470703 183.171875 649.33837891 C171.95661955 661.88679993 159.68161033 673.19310436 146.25390625 683.33349609 C144.65465179 684.55472772 143.08260998 685.81134129 141.51171875 687.06884766 C97.52357457 722.05941689 39.7725605 745.12088469 -15.6484375 753.01416016 C-19.31608971 753.4728974 -19.31608971 753.4728974 -22.39453125 754.59228516 C-24.21945657 754.86404092 -26.0500296 755.09864293 -27.8828125 755.31103516 C-28.98302734 755.43865234 -30.08324219 755.56626953 -31.21679688 755.69775391 C-32.36857422 755.82794922 -33.52035156 755.95814453 -34.70703125 756.09228516 C-35.81626953 756.22248047 -36.92550781 756.35267578 -38.06835938 756.48681641 C-74.00678558 760.60237938 -110.64043127 760.03069781 -146.39453125 754.59228516 C-147.60254395 754.41036621 -148.81055664 754.22844727 -150.05517578 754.04101562 C-205.06447074 745.45228937 -257.48902715 723.97792585 -303.39453125 692.59228516 C-304.36374512 691.93365479 -304.36374512 691.93365479 -305.35253906 691.26171875 C-315.12855154 684.58014009 -324.33015726 677.20352756 -333.39453125 669.59228516 C-333.88795013 669.18144684 -334.38136902 668.77060852 -334.88973999 668.34732056 C-343.47680344 661.183614 -351.61418271 653.69190475 -359.49194336 645.75561523 C-361.21701602 644.01973785 -362.95265116 642.29493425 -364.68945312 640.57080078 C-371.3844932 633.88390025 -377.51385725 627.01333286 -383.39453125 619.59228516 C-384.41830865 618.37871934 -385.44757238 617.16974201 -386.484375 615.96728516 C-405.8840504 593.14433543 -421.60111016 566.60276584 -434.39453125 539.59228516 C-434.9054834 538.53050049 -434.9054834 538.53050049 -435.42675781 537.44726562 C-449.86792176 507.27908067 -460.10278776 475.36261741 -465.88330078 442.44824219 C-466.3238352 439.98722421 -466.79730076 437.53792236 -467.296875 435.08837891 C-478.95984973 376.92078273 -471.49127209 312.5329615 -453.39453125 256.59228516 C-453.11738281 255.73344727 -452.84023438 254.87460937 -452.5546875 253.98974609 C-438.27104919 210.26746088 -415.57537545 169.10978673 -386.39453125 133.59228516 C-385.94513184 133.04523926 -385.49573242 132.49819336 -385.03271484 131.93457031 C-370.26132768 114.05065957 -354.31389499 95.82192759 -335.9375 81.57666016 C-333.51360148 79.68520017 -331.19521616 77.70012879 -328.87963867 75.6784668 C-320.82494915 68.68145144 -312.22649714 62.56498151 -303.39453125 56.59228516 C-302.70875 56.12822266 -302.02296875 55.66416016 -301.31640625 55.18603516 C-265.45070153 31.09304267 -226.3084521 13.1783473 -184.39453125 2.59228516 C-183.33186035 2.3204541 -182.26918945 2.04862305 -181.17431641 1.76855469 C-177.93844654 0.94613876 -174.69910731 0.13986374 -171.45703125 -0.65771484 C-170.03922363 -1.00926636 -170.03922363 -1.00926636 -168.59277344 -1.36791992 C-153.71455952 -4.9192716 -138.69273523 -6.93616434 -123.45703125 -8.09521484 C-122.64970551 -8.15808685 -121.84237976 -8.22095886 -121.0105896 -8.28573608 C-80.2562111 -11.39797539 -39.87869032 -9.19796152 0 0 Z " fill="#34A853" transform="translate(1005.39453125,137.40771484375)"/>
<path d="M0 0 C2.29131271 0.52087 4.58556968 1.01179349 6.88671875 1.48681641 C64.23647624 13.61728229 119.45849558 45.15898857 162.4140625 84.64697266 C164.40864803 86.41756729 166.4467517 88.02856756 168.60546875 89.59228516 C167.09269002 93.14318433 165.02426774 95.4203686 162.30282593 98.13543701 C161.39976212 99.04125015 160.4966983 99.94706329 159.56626892 100.88032532 C158.56298912 101.87652738 157.55961372 102.87263317 156.55615234 103.86865234 C155.50125395 104.92298648 154.44679598 105.97776143 153.39274597 107.03294373 C150.5317144 109.89454926 147.66455705 112.74994523 144.79626799 115.6042738 C141.79913333 118.58890835 138.80765917 121.57920532 135.81558228 124.56890869 C130.14955131 130.22872278 124.47844125 135.88341918 118.805493 141.53629899 C112.34697229 147.97246719 105.89412777 154.41431341 99.44175601 160.85664511 C86.16930383 174.10819058 72.88973294 187.35258142 59.60546875 200.59228516 C58.3420772 199.65965114 57.08076749 198.72419664 55.8203125 197.78759766 C55.11769287 197.26697754 54.41507324 196.74635742 53.69116211 196.20996094 C51.75557356 194.70870731 49.95930825 193.13594152 48.16796875 191.46728516 C28.88276322 174.58349411 5.0269925 162.1483117 -19.39453125 154.59228516 C-20.22130371 154.33012207 -21.04807617 154.06795898 -21.89990234 153.79785156 C-55.472378 143.32576103 -93.78632974 140.1881093 -128.39453125 147.59228516 C-129.23999512 147.7638916 -130.08545898 147.93549805 -130.95654297 148.11230469 C-170.56438127 156.27007591 -206.24846838 174.7635465 -236.39453125 201.59228516 C-236.90322754 202.03926758 -237.41192383 202.48625 -237.93603516 202.94677734 C-256.29283243 219.11006825 -271.54615869 238.18528934 -283.39453125 259.59228516 C-283.78415039 260.27484375 -284.17376953 260.95740234 -284.57519531 261.66064453 C-294.66260561 279.37551075 -301.90481671 298.27515579 -307.33203125 317.90478516 C-307.73748169 319.34930054 -307.73748169 319.34930054 -308.15112305 320.82299805 C-312.59036863 337.78550027 -313.89625853 354.84906677 -313.78564453 372.32324219 C-313.76946455 375.35478145 -313.78565828 378.38500278 -313.8046875 381.41650391 C-313.81832778 393.14493998 -312.95250239 404.14632318 -310.39453125 415.59228516 C-310.13833008 416.75614746 -309.88212891 417.92000977 -309.61816406 419.11914062 C-308.88975167 422.30699951 -308.12084152 425.48138733 -307.33203125 428.65478516 C-307.07615234 429.7034375 -306.82027344 430.75208984 -306.55664062 431.83251953 C-305.18948947 437.4241326 -303.79537262 443.00902745 -302.39453125 448.59228516 C-302.94633057 448.95 -303.49812988 449.30771484 -304.06665039 449.67626953 C-309.51998992 453.25511403 -314.71417111 457.05162593 -319.83203125 461.09228516 C-321.41399596 462.33195341 -322.99602915 463.57153427 -324.578125 464.81103516 C-325.37718262 465.43880859 -326.17624023 466.06658203 -326.99951172 466.71337891 C-330.78810847 469.6855543 -334.59174182 472.63830663 -338.39453125 475.59228516 C-339.8946102 476.7588503 -341.39461005 477.92551718 -342.89453125 479.09228516 C-369.89453125 500.09228515 -369.89453125 500.09228515 -372.14550781 501.84301758 C-373.64228768 503.00719775 -375.13903259 504.17142285 -376.63574219 505.33569336 C-380.43472183 508.29077689 -384.2343459 511.24502529 -388.03515625 514.19775391 C-396.59195451 520.8465198 -405.13345292 527.51381311 -413.64746094 534.21728516 C-416.85313816 536.74025527 -420.06154692 539.25974972 -423.26953125 541.77978516 C-424.45443788 542.710761 -425.63933477 543.64174924 -426.82421875 544.57275391 C-427.67242188 545.23919922 -428.520625 545.90564453 -429.39453125 546.59228516 C-451.70289663 525.85149206 -461.10057216 470.73810079 -465.91552734 442.3515625 C-466.33614025 439.9286435 -466.7972749 437.52107891 -467.2890625 435.11181641 C-478.98844402 376.95675118 -471.48783759 312.52234478 -453.39453125 256.59228516 C-453.11738281 255.73344727 -452.84023438 254.87460937 -452.5546875 253.98974609 C-438.27104919 210.26746088 -415.57537545 169.10978673 -386.39453125 133.59228516 C-385.94513184 133.04523926 -385.49573242 132.49819336 -385.03271484 131.93457031 C-370.26132768 114.05065957 -354.31389499 95.82192759 -335.9375 81.57666016 C-333.51360148 79.68520017 -331.19521616 77.70012879 -328.87963867 75.6784668 C-320.82494915 68.68145144 -312.22649714 62.56498151 -303.39453125 56.59228516 C-302.70875 56.12822266 -302.02296875 55.66416016 -301.31640625 55.18603516 C-265.45070153 31.09304267 -226.3084521 13.1783473 -184.39453125 2.59228516 C-183.33186035 2.3204541 -182.26918945 2.04862305 -181.17431641 1.76855469 C-177.93844654 0.94613876 -174.69910731 0.13986374 -171.45703125 -0.65771484 C-170.03922363 -1.00926636 -170.03922363 -1.00926636 -168.59277344 -1.36791992 C-153.71455952 -4.9192716 -138.69273523 -6.93616434 -123.45703125 -8.09521484 C-122.64970551 -8.15808685 -121.84237976 -8.22095886 -121.0105896 -8.28573608 C-80.2562111 -11.39797539 -39.87869032 -9.19796152 0 0 Z " fill="#EA4335" transform="translate(1005.39453125,137.40771484375)"/>
<path d="M0 0 C119.46 0 238.92 0 362 0 C362.99 7.26 363.98 14.52 365 22 C365.37125 24.18625 365.7425 26.3725 366.125 28.625 C366.92193388 33.73694919 367.28934079 38.8034698 367.5390625 43.96484375 C367.58125916 44.83452286 367.62345581 45.70420197 367.66693115 46.60023499 C369.89970539 96.19731769 368.01864844 146.90797861 353.66113281 194.78125 C352.92145877 197.26358296 352.22326065 199.75615011 351.5234375 202.25 C341.72034828 236.50714571 326.80826286 269.35957886 307 299 C306.49903809 299.75023437 305.99807617 300.50046875 305.48193359 301.2734375 C295.73885114 315.72171588 284.81518734 329.19850137 273 342 C272.09386355 343.00804747 271.18898141 344.01722343 270.28515625 345.02734375 C265.16145893 350.72797449 259.95898229 356.15085682 254 361 C246.83346438 356.57189669 240.37303271 351.3706252 233.8359375 346.0859375 C230.38601093 343.29939191 226.89591162 340.57109206 223.375 337.875 C222.84318115 337.46765625 222.3113623 337.0603125 221.76342773 336.640625 C220.17619338 335.42633151 218.58810093 334.21315992 217 333 C207.41097905 325.64638139 197.86496969 318.23870219 188.33056641 310.81445312 C184.55482736 307.87486664 180.77736693 304.93749416 177 302 C172.44050616 298.45427972 167.8814516 294.90800104 163.32421875 291.359375 C146.25488673 278.05844161 146.25488673 278.05844161 129 265 C131.79216653 262.05917646 134.66456221 259.73557693 138 257.4375 C143.93115437 253.17842638 149.26609626 248.43685601 154.53125 243.40136719 C155.93669289 242.06040273 157.35862477 240.73678427 158.78125 239.4140625 C184.41062988 214.88939727 197.55437225 182.78251098 206 149 C138.02 149 70.04 149 0 149 C0 99.83 0 50.66 0 0 Z " fill="#4285F3" transform="translate(918,442)"/>
<path d="M0 0 C1.83111496 1.37318568 3.66191021 2.74679147 5.4921875 4.12109375 C7.18240762 5.38744247 8.87517574 6.65039656 10.5703125 7.91015625 C19.02537036 14.21023418 27.34143697 20.68231935 35.65332031 27.16943359 C39.43222339 30.11722961 43.21627954 33.05839183 47 36 C51.55954742 39.54565133 56.11854845 43.091999 60.67578125 46.640625 C67.27201386 51.77594703 73.86968837 56.9087193 80.5 62 C88.69698441 68.29429668 96.84597629 74.65021423 105 81 C108.29133322 83.56292868 111.58306038 86.12535028 114.875 88.6875 C115.62998779 89.27563477 116.38497559 89.86376953 117.1628418 90.46972656 C117.86965088 91.01983398 118.57645996 91.56994141 119.3046875 92.13671875 C120.2325708 92.85927856 120.2325708 92.85927856 121.17919922 93.59643555 C123.10645774 95.08206296 125.05027113 96.54402665 127 98 C126.2111173 104.98449806 124.29196361 111.57874425 122.34765625 118.3203125 C117.726897 135.2243966 116.49839296 152.27577654 116.60888672 169.73095703 C116.6250667 172.7624963 116.60887297 175.79271762 116.58984375 178.82421875 C116.57620347 190.55265482 117.44202886 201.55403803 120 213 C120.38430176 214.74579346 120.38430176 214.74579346 120.77636719 216.52685547 C121.50477958 219.71471435 122.27368973 222.88910218 123.0625 226.0625 C123.31837891 227.11115234 123.57425781 228.15980469 123.83789062 229.24023438 C125.20504178 234.83184744 126.59915863 240.4167423 128 246 C127.44820068 246.35771484 126.89640137 246.71542969 126.32788086 247.08398438 C120.87454133 250.66282887 115.68036014 254.45934078 110.5625 258.5 C108.98053529 259.73966825 107.3985021 260.97924912 105.81640625 262.21875 C105.01734863 262.84652344 104.21829102 263.47429687 103.39501953 264.12109375 C99.60642278 267.09326914 95.80278943 270.04602148 92 273 C90.49992105 274.16656515 88.9999212 275.33323203 87.5 276.5 C60.5 297.5 60.5 297.5 58.24902344 299.25073242 C56.75224357 300.41491259 55.25549866 301.5791377 53.75878906 302.7434082 C49.95980942 305.69849173 46.16018535 308.65274014 42.359375 311.60546875 C33.80257674 318.25423464 25.26107833 324.92152795 16.74707031 331.625 C13.54139309 334.14797011 10.33298433 336.66746457 7.125 339.1875 C5.94009337 340.11847585 4.75519648 341.04946409 3.5703125 341.98046875 C2.72210937 342.64691406 1.87390625 343.31335938 1 344 C-21.30836538 323.2592069 -30.70604091 268.14581564 -35.52099609 239.75927734 C-35.941609 237.33635835 -36.40274365 234.92879375 -36.89453125 232.51953125 C-48.59391277 174.36446603 -41.09330634 109.93005962 -23 54 C-22.72285156 53.14116211 -22.44570313 52.28232422 -22.16015625 51.39746094 C-18.88577152 41.37455362 -15.11480204 31.61900257 -10.9375 21.9375 C-10.53813232 21.01001953 -10.13876465 20.08253906 -9.72729492 19.12695312 C-6.83066071 12.54985489 -3.52655263 6.26010339 0 0 Z " fill="#FABC05" transform="translate(575,340)"/>
</svg>
